<svg width="490" height="490" viewBox="0 0 490 490" fill="none" xmlns="http://www.w3.org/2000/svg">
<g clip-path="url(#clip0_1_45)">
<path d="M425.054 220.813L401.154 188.113C399.654 186.013 399.554 183.113 401.054 181.013L424.454 148.013C426.554 145.013 425.554 140.813 422.354 139.113L386.654 120.013C384.354 118.813 383.054 116.213 383.554 113.613L390.254 73.713C390.854 70.113 388.154 66.713 384.454 66.613L344.054 64.913C341.454 64.813 339.154 63.013 338.454 60.513L327.254 21.513C326.254 18.013 322.354 16.113 318.954 17.613L281.754 33.613C279.354 34.613 276.554 34.013 274.754 32.113L247.754 2.01301C245.254 -0.686994 241.054 -0.686994 238.554 2.11301L211.954 32.613C210.254 34.613 207.454 35.213 205.054 34.213L167.654 18.813C164.254 17.413 160.454 19.313 159.454 22.813L148.754 61.813C148.054 64.313 145.854 66.113 143.254 66.313L102.854 68.613C99.154 68.813 96.554 72.213 97.154 75.813L104.454 115.613C104.954 118.213 103.654 120.813 101.454 122.013L66.054 141.613C62.854 143.413 61.954 147.613 64.054 150.513L87.954 183.213C89.454 185.313 89.554 188.213 88.054 190.313L64.654 223.313C62.554 226.313 63.554 230.513 66.754 232.213L102.454 251.313C104.754 252.513 106.054 255.113 105.554 257.713L98.854 297.613C98.254 301.213 100.954 304.613 104.654 304.713L145.054 306.413C147.654 306.513 149.954 308.313 150.654 310.813L161.954 349.713C162.954 353.213 166.854 355.113 170.254 353.613L207.454 337.613C209.854 336.613 212.654 337.213 214.454 339.113L241.454 369.213C243.954 371.913 248.154 371.913 250.654 369.113L277.254 338.613C278.954 336.613 281.754 336.013 284.154 337.013L321.554 352.413C324.954 353.813 328.754 351.913 329.754 348.413L340.454 309.413C341.154 306.913 343.354 305.113 345.954 304.913L386.354 302.613C390.054 302.413 392.654 299.013 392.054 295.413L384.754 255.613C384.254 253.013 385.554 250.413 387.754 249.213L423.154 229.613C426.354 228.013 427.254 223.813 425.054 220.813ZM244.654 295.513C184.154 295.513 134.854 246.213 134.854 185.713C134.854 125.213 184.154 75.913 244.654 75.913C305.154 75.913 354.454 125.213 354.454 185.713C354.454 246.313 305.154 295.513 244.654 295.513Z" fill="#DA9246"/>
<path d="M343.554 366.513C337.754 372.413 329.654 375.913 320.954 375.913C317.854 375.913 314.754 375.413 311.854 374.613L286.054 366.813L266.154 385.013C265.454 385.613 264.854 386.213 264.154 386.713L296.154 485.913C297.254 489.413 301.754 490.213 304.054 487.313L327.354 457.413C328.454 455.913 330.454 455.313 332.154 455.813L368.454 466.413C371.954 467.413 375.154 464.113 374.054 460.713L343.554 366.513Z" fill="#DA9246"/>
<path d="M203.354 366.813L177.554 374.613C174.554 375.513 171.554 375.913 168.454 375.913C159.754 375.913 151.754 372.413 145.854 366.513L115.354 460.813C114.254 464.313 117.454 467.513 120.954 466.513L157.254 455.913C159.054 455.413 160.954 456.013 162.054 457.513L185.354 487.413C187.554 490.313 192.154 489.513 193.254 486.013L225.254 386.813C224.554 386.313 223.854 385.713 223.254 385.113L203.354 366.813Z" fill="#DA9246"/>
<path d="M309.754 158.413L268.354 155.413L252.754 117.013C249.854 109.813 239.554 109.813 236.654 117.013L221.054 155.413L179.654 158.413C171.854 159.013 168.754 168.713 174.654 173.713L206.354 200.513L196.454 240.813C194.554 248.413 202.854 254.413 209.454 250.313L244.654 228.413L279.854 250.313C286.454 254.413 294.754 248.413 292.854 240.813L282.954 200.513L314.654 173.713C320.654 168.713 317.554 159.013 309.754 158.413Z" fill="#DA9246"/>
</g>
<defs>
<clipPath id="clip0_1_45">
<rect width="489.183" height="489.183" fill="white"/>
</clipPath>
</defs>
</svg>
